<svg width="24" height="24" fill="none" xmlns="http://www.w3.org/2000/svg"><path d="m14.78 19.7-.59-.462.59.463Zm-5.56 0-.591.463.59-.462ZM12 22.007v-.75.75ZM19.25 9.61c0 1.226-.64 2.867-1.646 4.647-.99 1.75-2.27 3.523-3.413 4.982l1.18.925c1.166-1.487 2.496-3.326 3.538-5.168 1.026-1.814 1.841-3.746 1.841-5.386h-1.5Zm-9.44 9.629c-1.144-1.459-2.424-3.232-3.414-4.982-1.006-1.78-1.646-3.42-1.646-4.647h-1.5c0 1.64.815 3.572 1.84 5.386 1.043 1.842 2.373 3.681 3.539 5.168l1.18-.925Zm-5.06-9.63C4.75 5.217 8.047 1.75 12 1.75V.25c-4.883 0-8.75 4.243-8.75 9.359h1.5ZM12 1.75c3.953 0 7.25 3.466 7.25 7.859h1.5C20.75 4.493 16.883.25 12 .25v1.5Zm2.19 17.488c-.618.789-1.026 1.305-1.39 1.636-.334.302-.556.382-.8.382v1.5c.73 0 1.295-.306 1.808-.772.48-.436.977-1.073 1.563-1.82l-1.18-.926Zm-5.561.925c.586.748 1.082 1.385 1.563 1.821.513.466 1.079.771 1.808.771v-1.5c-.244 0-.466-.079-.8-.38-.364-.332-.772-.848-1.39-1.637l-1.181.925ZM8.25 10A3.75 3.75 0 0 0 12 13.75v-1.5A2.25 2.25 0 0 1 9.75 10h-1.5ZM12 13.75A3.75 3.75 0 0 0 15.75 10h-1.5A2.25 2.25 0 0 1 12 12.25v1.5ZM15.75 10A3.75 3.75 0 0 0 12 6.25v1.5A2.25 2.25 0 0 1 14.25 10h1.5ZM12 6.25A3.75 3.75 0 0 0 8.25 10h1.5A2.25 2.25 0 0 1 12 7.75v-1.5Z" fill="#fff" fill-opacity=".8"/></svg>