<svg width="24" height="24" fill="none" xmlns="http://www.w3.org/2000/svg"><path d="m4.929 7.929-.53.53.53-.53ZM3 6l.53-.53-.014-.015-.015-.013L3 6Zm18 0 .53.53L21 6Zm-1.929 1.929.53.53-.53-.53ZM4.061 20.045l.44-.607-.44.607ZM2.955 18.94l.607-.44-.607.44Zm18.09 0-.607-.44.607.44Zm-1.106 1.106-.44-.607.44.607Zm0-16.09-.44.607.44-.607Zm1.106 1.106-.607.44.607-.44ZM4.061 3.955l.44.607-.44-.607ZM2.955 5.06l-.607-.44.607.44Zm-.347.587-.678-.32.678.32Zm18.771-.027.676-.326-.676.326ZM5.459 7.399 3.53 5.469 2.47 6.53l1.929 1.93 1.06-1.061Zm15.01-1.93L18.542 7.4l1.06 1.06 1.93-1.929-1.061-1.06ZM4.4 8.46c1.651 1.652 2.942 2.945 4.084 3.816 1.159.884 2.252 1.404 3.517 1.404v-1.5c-.806 0-1.582-.314-2.607-1.096C8.35 10.287 7.14 9.08 5.459 7.399L4.4 8.459ZM18.54 7.4c-1.682 1.681-2.89 2.888-3.934 3.684-1.025.782-1.801 1.096-2.607 1.096v1.5c1.265 0 2.358-.52 3.517-1.404 1.142-.87 2.433-2.164 4.084-3.816L18.54 7.4ZM11 3.75h2v-1.5h-2v1.5Zm2 16.5h-2v1.5h2v-1.5Zm-2 0c-1.892 0-3.25-.001-4.302-.115-1.038-.113-1.688-.328-2.196-.697l-.882 1.214c.807.586 1.75.848 2.916.974 1.152.125 2.606.124 4.464.124v-1.5ZM1.25 12c0 1.858-.001 3.312.124 4.463.126 1.166.388 2.11.974 2.917l1.214-.882c-.37-.508-.585-1.158-.697-2.196-.114-1.052-.115-2.41-.115-4.302h-1.5Zm3.252 7.438a4.25 4.25 0 0 1-.94-.94l-1.214.882a5.75 5.75 0 0 0 1.272 1.272l.882-1.214ZM21.25 12c0 1.892-.001 3.25-.115 4.302-.113 1.038-.328 1.688-.697 2.196l1.214.882c.586-.807.848-1.75.974-2.916.125-1.152.124-2.606.124-4.464h-1.5ZM13 21.75c1.858 0 3.312.001 4.463-.124 1.166-.126 2.11-.388 2.917-.974l-.882-1.214c-.508.37-1.158.585-2.196.697-1.052.114-2.41.115-4.302.115v1.5Zm7.438-3.252c-.262.36-.58.678-.94.94l.882 1.214a5.749 5.749 0 0 0 1.272-1.272l-1.214-.882ZM13 3.75c1.892 0 3.25.001 4.302.115 1.038.112 1.688.328 2.196.697l.882-1.214c-.807-.586-1.75-.848-2.916-.974-1.152-.125-2.606-.124-4.464-.124v1.5Zm6.498.812c.36.262.678.58.94.94l1.214-.882a5.75 5.75 0 0 0-1.272-1.272l-.882 1.214ZM11 2.25c-1.858 0-3.312-.001-4.464.124-1.165.126-2.11.388-2.916.974l.882 1.214c.508-.37 1.158-.585 2.196-.697C7.75 3.751 9.108 3.75 11 3.75v-1.5ZM3.62 3.348A5.75 5.75 0 0 0 2.348 4.62l1.214.882c.262-.36.58-.678.94-.94L3.62 3.348ZM2.75 12c0-1.624 0-2.858.074-3.847.073-.988.216-1.663.462-2.184L1.93 5.328c-.362.766-.523 1.654-.602 2.714C1.25 9.099 1.25 10.398 1.25 12h1.5Zm.536-6.031c.08-.168.17-.322.276-.467L2.348 4.62c-.162.223-.3.458-.418.708l1.356.64Zm.215-.527-.392-.352-1.002 1.116.392.352 1.002-1.116ZM22.75 12c0-1.614 0-2.919-.08-3.981-.08-1.064-.245-1.955-.615-2.724l-1.352.652c.251.52.397 1.194.471 2.185.076.993.076 2.233.076 3.868h1.5Zm-.695-6.705a4.364 4.364 0 0 0-.403-.675l-1.214.882c.1.138.189.285.265.445l1.352-.652ZM21.53 6.53l.38-.379-1.061-1.06-.38.379 1.061 1.06Z" fill="#fff" fill-opacity=".8"/></svg>