<svg width="24" height="24" fill="none" xmlns="http://www.w3.org/2000/svg"><path d="M18 5a1 1 0 1 1 2 0 1 1 0 0 1-2 0Zm-7-3.5h2v-1h-2v1ZM22.5 11v2h1v-2h-1ZM13 22.5h-2v1h2v-1ZM1.5 13v-2h-1v2h1Zm9.5 9.5c-2.371 0-4.1-.001-5.42-.179-1.306-.175-2.138-.515-2.762-1.139l-.707.707c.84.84 1.919 1.233 3.336 1.424 1.403.188 3.21.187 5.553.187v-1ZM.5 13c0 2.343-.001 4.15.188 5.553.19 1.417.582 2.495 1.423 3.336l.707-.707c-.624-.624-.964-1.456-1.14-2.762C1.502 17.1 1.5 15.37 1.5 13h-1Zm22 0c0 2.371-.001 4.1-.179 5.42-.175 1.306-.515 2.138-1.139 2.762l.707.707c.84-.84 1.233-1.919 1.424-3.336.188-1.403.187-3.21.187-5.553h-1ZM13 23.5c2.343 0 4.15.001 5.553-.188 1.417-.19 2.495-.582 3.336-1.423l-.707-.707c-.624.624-1.456.964-2.762 1.14-1.32.177-3.049.178-5.42.178v1Zm0-22c2.371 0 4.1.001 5.42.179 1.306.175 2.138.515 2.762 1.139l.707-.707C21.05 1.27 19.97.878 18.553.688 17.15.498 15.343.5 13 .5v1ZM23.5 11c0-2.343.001-4.15-.188-5.553-.19-1.417-.582-2.495-1.423-3.336l-.707.707c.624.624.964 1.456 1.14 2.762.177 1.32.178 3.049.178 5.42h1ZM11 .5C8.657.5 6.85.499 5.447.688 4.03.878 2.952 1.27 2.111 2.11l.707.707c.624-.624 1.456-.964 2.762-1.14C6.9 1.502 8.63 1.5 11 1.5v-1ZM1.5 11c0-2.371.001-4.1.179-5.42.175-1.306.515-2.138 1.139-2.762l-.707-.707C1.27 2.95.878 4.03.688 5.447.498 6.85.5 8.657.5 11h1Zm4 1a6.5 6.5 0 0 0 6.5 6.5v-1A5.5 5.5 0 0 1 6.5 12h-1Zm6.5 6.5a6.5 6.5 0 0 0 6.5-6.5h-1a5.5 5.5 0 0 1-5.5 5.5v1Zm6.5-6.5A6.5 6.5 0 0 0 12 5.5v1a5.5 5.5 0 0 1 5.5 5.5h1ZM12 5.5A6.5 6.5 0 0 0 5.5 12h1A5.5 5.5 0 0 1 12 6.5v-1Z" fill="#fff"/></svg>