<svg width="24" height="24" fill="none" xmlns="http://www.w3.org/2000/svg"><path d="m4.76 3.662.138-.135a2 2 0 0 1 2.706 0c.031.029.067.064.137.135L9.2 5.12a2.759 2.759 0 0 1 .578 3.053 2.759 2.759 0 0 0 .578 3.053l2.397 2.397a2.758 2.758 0 0 0 3.053.578 2.759 2.759 0 0 1 3.053.578l1.458 1.459c.07.07.106.106.135.137a2 2 0 0 1 0 2.706 4.609 4.609 0 0 1-.135.137l-.886.887a2.985 2.985 0 0 1-2.759.803 17.913 17.913 0 0 1-13.6-13.601 2.986 2.986 0 0 1 .803-2.759l.886-.886Z" stroke="#fff" stroke-opacity=".8" stroke-width="1.5"/></svg>