<svg width="24" height="24" fill="none" xmlns="http://www.w3.org/2000/svg"><path d="M11.2 1.7h2v-1h-2v1Zm11.5 9.5v2h1v-2h-1Zm-9.5 11.5h-2v1h2v-1ZM1.7 13.2v-2h-1v2h1Zm9.5 9.5c-2.371 0-4.1-.001-5.42-.179-1.306-.175-2.138-.515-2.762-1.139l-.707.707c.84.84 1.919 1.233 3.336 1.424 1.403.188 3.21.187 5.553.187v-1ZM.7 13.2c0 2.343-.001 4.15.187 5.553.191 1.417.583 2.495 1.424 3.336l.707-.707c-.624-.624-.964-1.456-1.14-2.762-.176-1.32-.178-3.05-.178-5.42h-1Zm22 0c0 2.371-.001 4.1-.179 5.42-.175 1.306-.515 2.138-1.14 2.762l.708.707c.84-.84 1.233-1.919 1.423-3.336.189-1.403.188-3.21.188-5.553h-1Zm-9.5 10.5c2.343 0 4.15.001 5.553-.188 1.417-.19 2.495-.582 3.336-1.423l-.707-.707c-.624.624-1.456.964-2.762 1.14-1.32.177-3.049.178-5.42.178v1Zm0-22c2.371 0 4.1.001 5.42.179 1.306.175 2.138.515 2.762 1.139l.707-.707c-.84-.84-1.92-1.233-3.336-1.423C17.35.698 15.543.7 13.2.7v1Zm10.5 9.5c0-2.343.001-4.15-.188-5.553-.19-1.417-.582-2.495-1.423-3.336l-.707.707c.624.624.964 1.456 1.14 2.762.177 1.32.178 3.049.178 5.42h1ZM11.2.7C8.857.7 7.05.699 5.647.888c-1.417.19-2.496.582-3.336 1.423l.707.707c.624-.624 1.456-.964 2.762-1.14C7.1 1.702 8.83 1.7 11.2 1.7v-1ZM1.7 11.2c0-2.371.001-4.1.179-5.42.175-1.306.515-2.138 1.139-2.762l-.707-.707C1.47 3.15 1.078 4.23.887 5.647.7 7.05.7 8.857.7 11.2h1Zm11.22 5.99c-5.47 0-8.59-3.75-8.72-9.99h2.74c.09 4.58 2.11 6.52 3.71 6.92V7.2h2.58v3.95c1.58-.17 3.24-1.97 3.8-3.95h2.58c-.43 2.44-2.23 4.24-3.51 4.98 1.28.6 3.33 2.17 4.11 5.01h-2.84c-.61-1.9-2.13-3.37-4.14-3.57v3.57h-.31Z" fill="#fff"/></svg>