<?xml version="1.0" standalone="no"?>
<!DOCTYPE svg PUBLIC "-//W3C//DTD SVG 20010904//EN"
 "http://www.w3.org/TR/2001/REC-SVG-20010904/DTD/svg10.dtd">
<svg version="1.0" xmlns="http://www.w3.org/2000/svg"
 width="960.000000pt" height="960.000000pt" viewBox="0 0 960.000000 960.000000"
 preserveAspectRatio="xMidYMid meet">
<metadata>
Created by potrace 1.14, written by Peter Selinger 2001-2017
</metadata>
<g transform="translate(0.000000,960.000000) scale(0.100000,-0.100000)"
fill="#000000" stroke="none">
<path d="M4397 9433 c-11 -29 -14 -69 -11 -173 2 -74 6 -146 8 -160 3 -14 8
-37 11 -52 3 -16 7 -39 9 -53 27 -156 60 -15 60 260 0 178 -7 215 -38 215 -18
0 -27 -9 -39 -37z"/>
<path d="M6008 8917 c-44 -26 -158 -119 -158 -129 0 -4 -8 -15 -18 -25 -27
-27 -72 -90 -72 -101 0 -6 -4 -12 -8 -14 -19 -8 -127 -216 -117 -226 6 -6 99
86 290 289 39 41 88 88 109 104 45 34 86 73 86 81 0 3 -5 14 -10 25 -14 25
-55 24 -102 -4z"/>
<path d="M3008 8669 c-34 -19 -22 -55 30 -87 26 -16 57 -38 68 -48 12 -11 45
-39 73 -63 28 -25 71 -63 95 -85 45 -42 138 -125 216 -192 24 -22 57 -51 74
-66 36 -35 49 -36 34 -3 -6 14 -15 25 -20 25 -5 0 -7 4 -4 9 4 5 3 11 -2 13
-4 1 -23 23 -42 48 -19 25 -40 51 -47 58 -7 7 -13 16 -13 20 0 7 -48 60 -145
162 -159 166 -267 238 -317 209z"/>
<path d="M4483 8538 c4 -10 3 -18 -1 -18 -4 0 -7 -15 -8 -33 0 -34 -12 -127
-19 -161 -2 -12 -7 -41 -9 -66 -5 -49 -27 -188 -41 -260 -3 -14 -8 -38 -11
-55 -8 -48 -43 -183 -61 -234 -8 -25 -17 -50 -18 -56 -1 -5 -6 -19 -10 -30 -4
-11 -25 -63 -45 -115 -70 -178 -170 -380 -170 -342 0 21 -251 262 -273 262 -3
0 -29 16 -58 36 -106 71 -297 151 -464 193 -82 21 -193 40 -275 47 -36 3 -79
7 -97 8 -54 5 -56 -7 -7 -60 26 -27 65 -71 88 -98 22 -26 50 -58 60 -70 37
-42 138 -180 153 -210 9 -17 19 -33 22 -36 12 -10 51 -69 51 -78 0 -5 9 -17
20 -27 11 -10 20 -24 20 -31 0 -7 3 -14 8 -16 8 -4 35 -48 60 -98 9 -19 20
-37 23 -40 20 -18 172 -472 215 -645 46 -185 48 -191 98 -214 39 -19 57 -20
446 -16 223 2 437 6 475 9 128 8 219 16 265 22 25 3 59 7 75 9 17 2 53 7 81
10 28 3 61 8 75 10 13 3 44 8 69 11 25 3 48 8 51 10 4 2 24 6 45 10 22 3 57
10 79 16 22 5 50 12 63 14 13 3 42 11 66 19 23 8 51 16 62 18 10 2 44 15 75
29 57 26 67 39 84 114 2 10 11 46 20 79 8 33 18 71 21 85 3 14 23 86 45 160
22 74 42 146 45 159 3 13 11 36 19 52 8 15 15 33 15 39 0 7 6 26 14 43 8 18
27 61 42 97 14 36 31 76 37 90 6 14 11 27 12 30 1 3 6 16 12 30 6 14 34 83 63
154 28 71 65 158 82 194 31 67 82 132 104 132 7 0 14 3 16 8 2 4 26 22 53 39
57 36 105 79 105 93 0 14 -153 4 -235 -15 -138 -31 -219 -62 -460 -175 -60
-29 -113 -57 -117 -63 -4 -7 -8 -9 -8 -5 0 4 -36 -13 -80 -38 -44 -24 -83 -44
-86 -44 -2 0 -10 -5 -17 -10 -11 -9 -133 -84 -197 -121 -14 -8 -27 -16 -30
-19 -3 -3 -21 -17 -40 -30 -41 -29 -78 -60 -131 -112 l-38 -38 -21 28 c-29 36
-173 332 -222 457 -11 27 -25 61 -31 75 -6 14 -11 27 -12 30 -6 24 -18 59 -25
75 -13 28 -107 353 -124 430 -11 48 -16 64 -36 129 -12 38 -23 78 -26 89 -2
12 -11 28 -20 36 -15 15 -16 14 -11 -1z m67 -699 c0 -10 4 -20 9 -23 4 -3 11
-19 14 -36 9 -43 8 -41 33 -90 12 -25 48 -106 79 -180 83 -197 157 -341 252
-492 21 -34 53 -52 53 -29 0 5 8 11 18 15 16 5 71 42 99 66 7 5 24 15 38 22
14 6 25 14 25 18 0 4 14 13 30 20 17 7 30 16 30 21 0 4 10 11 23 15 12 4 36
17 52 29 53 40 237 147 347 202 26 13 50 28 53 33 3 6 15 10 25 10 10 0 20 3
22 8 5 11 259 133 270 130 5 -2 -2 -20 -16 -40 -72 -107 -172 -292 -168 -310
1 -5 -3 -8 -8 -8 -6 0 -10 -4 -10 -9 0 -5 -13 -39 -30 -74 -16 -36 -30 -70
-30 -76 0 -6 -5 -19 -10 -29 -6 -9 -28 -64 -50 -122 -29 -79 -46 -111 -69
-128 -16 -13 -36 -24 -43 -26 -7 -1 -17 -4 -23 -7 -5 -4 -23 -10 -40 -14 -16
-5 -32 -9 -35 -10 -3 -1 -18 -5 -35 -9 -16 -4 -41 -12 -55 -17 -14 -4 -36 -11
-50 -14 -14 -2 -52 -12 -85 -20 -33 -9 -67 -17 -75 -19 -8 -2 -44 -12 -80 -21
-36 -10 -72 -19 -80 -20 -8 -1 -40 -7 -70 -13 -30 -6 -71 -14 -90 -17 -53 -8
-103 -17 -125 -22 -27 -6 -56 -10 -79 -12 -16 -1 -17 -4 -8 -13 9 -9 62 -13
185 -13 173 0 261 7 401 30 21 4 57 8 80 11 22 2 55 5 71 8 56 7 130 16 163
21 l34 4 -5 -42 c-3 -23 -8 -49 -10 -57 -3 -8 -8 -28 -12 -43 -4 -20 -10 -27
-20 -23 -8 3 -17 1 -19 -3 -3 -5 -28 -11 -56 -15 -27 -4 -53 -7 -57 -8 -5 -1
-28 -6 -53 -10 -57 -12 -73 -14 -135 -24 -27 -4 -54 -8 -60 -9 -12 -3 -107
-15 -154 -20 -19 -3 -48 -6 -65 -9 -37 -6 -135 -17 -185 -21 -20 -2 -36 -4
-36 -5 0 -1 -38 -4 -170 -14 -27 -3 -79 -7 -115 -10 -36 -4 -92 -8 -125 -10
-33 -3 -103 -8 -155 -12 -52 -4 -114 -7 -137 -8 -24 -1 -43 -5 -43 -9 0 -4 -7
-4 -17 1 -9 6 -29 6 -45 2 -23 -7 -30 -5 -39 13 -7 12 -13 28 -14 37 -2 18
-14 66 -25 100 -4 14 -18 59 -31 100 -12 41 -26 79 -31 85 -4 5 -8 14 -8 21 0
6 -10 33 -22 60 -12 27 -22 52 -23 56 0 3 -3 10 -7 14 -5 4 -8 18 -8 30 0 13
-4 25 -9 28 -5 3 -12 17 -15 30 -3 14 -20 54 -36 89 -17 36 -30 68 -30 71 0 6
-128 224 -142 241 -4 5 -36 46 -69 90 -33 44 -64 82 -67 85 -8 6 -86 109 -96
128 -6 9 -1 11 16 8 21 -4 94 -28 128 -43 8 -3 20 -7 27 -9 18 -3 167 -75 173
-82 3 -4 23 -16 44 -27 42 -21 162 -107 211 -150 68 -61 230 -212 255 -238
l27 -29 31 36 c64 73 169 271 222 421 12 33 24 67 28 75 3 8 7 20 7 25 1 6 5
17 8 25 3 8 18 62 32 120 14 58 35 136 47 175 18 64 21 68 34 50 8 -10 14 -27
14 -36z"/>
<path d="M7005 7278 c-44 -11 -82 -23 -85 -27 -3 -3 -12 -7 -20 -9 -44 -8
-266 -113 -320 -152 -17 -12 -30 -19 -30 -15 0 3 -10 -3 -22 -15 -12 -11 -25
-20 -29 -20 -5 0 -20 -11 -35 -25 l-27 -25 30 0 c29 0 62 9 238 63 39 11 75
22 80 23 6 1 48 16 95 32 96 34 195 64 225 68 11 1 21 3 23 4 1 2 5 3 10 4 51
12 63 30 52 76 -10 43 -67 49 -185 18z"/>
<path d="M2108 7062 c-36 -4 -64 -41 -45 -59 16 -16 39 -21 136 -28 103 -7
159 -16 236 -36 22 -6 49 -13 60 -16 11 -2 29 -6 40 -8 11 -3 79 -20 150 -38
76 -19 140 -31 155 -27 23 5 19 10 -46 48 -82 49 -206 103 -279 121 -27 7 -57
15 -65 18 -8 3 -33 7 -55 9 -49 5 -100 12 -100 14 0 4 -161 5 -187 2z"/>
<path d="M7439 6385 c-13 -7 -27 -11 -31 -9 -5 3 -8 0 -8 -5 0 -6 -6 -11 -14
-11 -7 0 -38 -11 -67 -23 -54 -24 -92 -39 -96 -38 -8 1 -199 -103 -209 -114
-11 -11 -11 -15 1 -25 21 -18 201 -16 230 2 6 3 33 13 62 21 l52 16 -64 -127
c-67 -133 -138 -292 -129 -292 2 0 -3 -14 -11 -31 -15 -28 -61 -161 -70 -200
-2 -9 -12 -47 -23 -85 -17 -59 -43 -167 -58 -239 -2 -11 -6 -31 -9 -45 -11
-55 -35 -198 -40 -240 -6 -50 -12 -94 -20 -155 -2 -22 -7 -76 -10 -120 -3 -44
-8 -96 -10 -115 -20 -178 -20 -1011 0 -1285 2 -22 6 -90 9 -151 4 -61 8 -121
11 -132 2 -11 6 -61 10 -112 3 -50 8 -101 10 -113 3 -12 7 -51 11 -87 3 -36 8
-74 10 -85 2 -11 6 -38 9 -60 2 -22 7 -60 11 -85 3 -25 7 -56 9 -70 1 -14 8
-54 14 -90 6 -36 13 -78 15 -95 7 -46 17 -92 32 -160 1 -5 5 -26 8 -45 8 -41
74 -298 83 -320 3 -8 7 -22 9 -30 2 -8 20 -76 39 -150 20 -74 38 -144 39 -155
2 -11 4 -20 5 -20 2 0 5 -11 7 -25 3 -14 13 -62 24 -108 30 -124 30 -123 -27
-105 -27 8 -61 17 -78 20 -16 3 -38 9 -47 14 -10 5 -18 8 -18 5 0 -3 -15 0
-32 5 -18 5 -53 12 -78 15 -25 3 -48 8 -51 10 -8 4 -58 13 -174 29 -22 3 -56
8 -75 11 -19 3 -53 7 -75 9 -22 2 -65 7 -95 10 -30 3 -80 8 -110 10 -30 3 -79
7 -109 10 -54 5 -97 8 -336 21 -256 14 -583 6 -855 -20 -36 -4 -78 -8 -95 -10
-16 -2 -57 -7 -89 -11 -33 -4 -69 -9 -80 -11 -12 -2 -37 -7 -56 -10 -19 -3
-73 -12 -120 -20 -47 -9 -96 -18 -110 -20 -261 -47 -704 -206 -893 -321 -31
-19 -54 -39 -51 -45 4 -6 31 -7 73 -3 80 9 106 13 106 15 0 2 24 7 80 14 28 4
59 8 70 10 11 2 56 9 100 15 125 19 136 21 200 32 58 11 78 14 146 23 17 3 42
7 57 10 15 3 43 8 62 11 19 3 49 8 65 12 17 3 41 7 55 9 14 1 45 5 70 9 25 4
56 8 70 10 14 1 50 6 80 10 30 4 71 9 90 10 19 2 58 7 85 10 51 6 93 9 250 22
113 10 640 10 800 1 136 -8 264 -17 315 -22 47 -5 145 -16 200 -22 25 -3 63
-7 85 -9 22 -2 60 -6 85 -9 25 -3 65 -9 90 -12 25 -3 59 -7 75 -9 37 -5 204
-44 225 -52 8 -3 20 -7 25 -9 6 -1 79 -25 162 -53 147 -50 154 -51 178 -35 30
20 33 60 10 144 -18 67 -69 282 -80 340 -3 14 -7 35 -10 47 -5 22 -9 39 -20
93 -21 98 -24 110 -29 128 -3 9 -7 28 -10 42 -2 14 -10 48 -16 75 -6 28 -14
61 -16 75 -2 14 -9 45 -14 70 -5 25 -12 59 -15 75 -3 17 -13 66 -21 110 -8 44
-17 91 -19 105 -2 14 -7 36 -10 50 -2 14 -7 44 -10 67 -3 23 -8 59 -11 80 -7
45 -9 54 -24 158 -6 44 -13 91 -15 105 -3 14 -7 55 -10 91 -3 36 -7 74 -9 85
-2 10 -7 57 -11 104 -4 47 -9 99 -11 115 -1 17 -5 74 -9 127 -3 53 -8 106 -10
117 -2 10 -6 95 -10 188 -4 92 -9 206 -11 253 -5 108 -5 732 0 825 13 223 18
303 21 330 2 17 6 59 9 95 7 68 16 144 21 171 2 9 6 40 10 70 4 30 10 72 15
94 5 22 11 56 15 75 8 51 53 236 72 300 9 30 18 60 19 66 3 17 91 303 142 459
9 28 17 55 18 60 1 6 14 43 28 82 28 79 33 135 14 150 -23 18 -54 21 -79 8z"/>
<path d="M6495 6109 c-27 -6 -61 -12 -75 -13 -26 -4 -41 -7 -175 -31 -73 -13
-98 -17 -175 -30 -14 -2 -38 -6 -55 -9 -16 -3 -52 -8 -80 -12 -27 -3 -59 -8
-70 -10 -11 -2 -43 -7 -71 -9 -28 -3 -59 -7 -70 -9 -10 -2 -44 -7 -74 -11 -30
-3 -66 -8 -80 -10 -24 -4 -61 -9 -145 -19 -22 -3 -65 -8 -95 -11 -30 -3 -73
-8 -95 -11 -22 -2 -65 -7 -95 -9 -30 -3 -75 -8 -100 -10 -68 -8 -130 -14 -186
-19 -27 -3 -70 -8 -95 -11 -24 -3 -71 -8 -104 -11 -33 -3 -73 -7 -90 -9 -16
-2 -66 -6 -110 -9 -44 -3 -80 -6 -80 -6 0 -4 -46 -9 -132 -15 -54 -4 -118 -8
-143 -10 -50 -4 -467 -17 -545 -16 -85 0 -526 12 -600 16 -448 24 -478 27
-620 63 -125 32 -162 33 -194 6 -21 -17 -27 -31 -26 -56 2 -39 3 -44 107 -268
21 -47 39 -87 40 -90 1 -6 8 -26 38 -100 28 -69 160 -469 158 -478 -1 -4 5
-27 12 -52 8 -25 14 -47 15 -50 0 -3 5 -23 10 -45 4 -22 9 -44 11 -50 11 -38
52 -232 60 -284 3 -18 8 -43 10 -55 2 -11 6 -34 9 -51 8 -48 14 -79 18 -100 3
-12 9 -48 13 -80 8 -62 10 -73 13 -77 1 -2 4 -21 6 -43 2 -22 6 -49 8 -60 3
-11 8 -45 12 -75 4 -30 9 -64 11 -75 2 -11 6 -40 9 -65 2 -25 6 -63 9 -85 3
-22 8 -60 11 -85 3 -25 8 -72 11 -105 3 -33 7 -80 10 -105 7 -66 14 -146 29
-380 3 -36 7 -99 10 -140 28 -418 25 -935 -10 -1480 -2 -41 -7 -120 -11 -175
-11 -187 -21 -306 -30 -375 -2 -19 -7 -62 -10 -95 -3 -33 -9 -75 -14 -93 -5
-19 -5 -30 1 -27 5 4 4 -6 -2 -22 -6 -15 -12 -50 -14 -77 -3 -43 0 -52 22 -69
26 -21 60 -19 116 8 132 61 304 132 314 128 9 -4 11 -56 10 -199 -3 -244 -6
-241 173 -184 125 40 142 42 297 44 119 1 134 3 146 21 32 43 -33 110 -127
132 -42 9 -177 10 -232 0 -40 -7 -59 -6 -67 2 -8 8 -12 58 -13 139 -2 174 -1
169 -25 191 -18 17 -32 19 -88 16 -71 -4 -98 -11 -176 -45 -27 -12 -63 -27
-80 -35 -16 -7 -56 -24 -88 -39 -68 -31 -90 -33 -83 -8 5 18 18 98 17 107 0 2
6 23 14 45 8 22 12 40 10 40 -2 0 1 14 7 30 13 38 123 112 319 213 173 89 268
143 292 165 17 15 17 16 -3 24 -21 8 -176 3 -255 -7 -22 -3 -69 -15 -105 -27
-36 -12 -67 -20 -69 -19 -2 2 -7 -1 -10 -6 -3 -4 -22 -16 -43 -25 -39 -18 -51
-10 -44 29 2 10 7 41 10 68 4 28 9 61 11 75 21 130 35 243 40 330 3 36 5 65 6
65 6 0 21 394 21 550 -1 205 -13 546 -26 730 -3 44 -8 109 -10 145 -3 36 -7
88 -10 115 -3 28 -8 75 -11 105 -4 50 -7 77 -20 175 -4 34 -16 138 -20 175 -2
14 -8 59 -14 100 -6 41 -13 93 -16 115 -6 42 -11 75 -50 300 -38 219 -32 190
-54 280 -6 22 -10 41 -11 43 0 1 0 3 -1 5 0 1 -3 13 -5 27 -14 81 -124 485
-139 509 -3 6 -9 23 -11 37 -3 15 -16 54 -29 87 -14 33 -25 66 -25 74 0 7 -4
21 -10 31 -25 43 -139 326 -135 333 3 4 13 6 23 5 9 -2 37 -7 62 -11 25 -3 59
-9 75 -12 122 -20 744 -46 1120 -46 192 -1 409 7 540 18 22 2 74 6 115 9 41 3
86 8 100 10 14 3 57 7 95 11 39 3 84 8 100 10 39 6 123 16 155 20 92 9 148 16
170 20 14 3 46 7 72 10 59 6 115 14 150 21 15 3 39 7 55 9 41 5 88 13 173 30
41 8 89 17 105 20 17 2 41 7 55 10 14 3 39 8 55 10 17 3 86 17 155 32 69 14
134 27 145 29 11 1 20 3 20 4 0 2 9 4 20 6 11 1 47 10 80 19 33 8 71 17 85 20
14 2 79 20 145 39 66 20 127 38 135 40 28 7 205 79 210 85 3 3 14 11 25 17 11
6 20 20 20 30 0 16 -8 19 -50 21 -27 1 -72 -3 -100 -8z"/>
<path d="M5747 5534 c-1 -1 -51 -5 -112 -8 -234 -13 -282 -15 -345 -20 -151
-13 -218 -18 -260 -21 -25 -2 -65 -6 -90 -9 -25 -3 -74 -8 -110 -11 -36 -3
-81 -8 -100 -10 -19 -2 -66 -7 -105 -11 -99 -9 -189 -18 -300 -30 -29 -3 -112
-10 -211 -19 -305 -26 -982 -26 -1117 1 -12 2 -44 6 -72 9 -27 3 -68 7 -90 10
-22 2 -62 7 -90 11 -53 6 -86 11 -122 18 -28 6 -39 -10 -24 -37 15 -31 151
-393 155 -412 1 -5 5 -16 9 -22 5 -7 6 -13 2 -13 -3 0 -1 -9 5 -20 6 -11 15
-39 20 -62 9 -45 34 -142 70 -268 22 -79 59 -228 66 -270 2 -14 9 -45 14 -70
9 -45 17 -93 26 -160 2 -19 6 -46 9 -60 8 -40 13 -65 20 -106 8 -53 13 -79 40
-228 13 -71 29 -134 34 -139 24 -24 34 12 33 120 0 59 -1 108 -2 108 0 0 -3
68 -5 150 -5 189 -11 253 -31 380 -4 25 -47 233 -58 285 -17 73 -72 249 -140
448 -25 73 -46 136 -46 139 0 3 30 3 68 -1 129 -11 187 -17 212 -22 166 -28
950 -20 1120 12 14 2 53 6 88 9 35 2 84 6 110 9 26 3 72 8 102 11 30 3 73 7
95 10 113 14 114 14 120 -5 7 -21 14 -53 20 -92 3 -16 7 -43 10 -60 4 -18 8
-42 9 -53 2 -11 7 -42 11 -70 3 -27 8 -61 11 -75 2 -14 6 -45 9 -70 3 -25 8
-58 10 -75 24 -195 49 -467 60 -655 13 -219 16 -285 20 -415 6 -176 14 -494
20 -780 2 -121 5 -220 5 -220 1 0 3 -34 5 -75 12 -214 29 -417 39 -470 3 -14
7 -50 10 -80 4 -30 8 -64 10 -75 2 -11 7 -45 11 -75 10 -78 22 -94 30 -45 4
22 9 49 12 60 2 11 6 36 8 55 3 19 7 49 10 65 12 79 23 196 40 398 12 146 18
393 18 742 -1 415 -8 663 -28 925 -3 41 -7 102 -10 135 -5 66 -14 158 -22 220
-2 22 -6 60 -8 85 -2 25 -6 56 -8 70 -5 22 -10 64 -23 170 -7 55 -22 156 -30
194 -2 11 -7 36 -10 55 -3 18 -7 41 -9 50 -48 221 -49 215 15 224 19 3 42 7
50 11 8 3 33 8 55 10 22 3 40 5 40 6 0 2 42 10 180 36 32 6 339 72 368 80 9 2
26 6 37 8 11 3 24 7 28 10 5 3 21 7 37 10 53 10 195 57 195 65 0 7 -217 11
-223 5z"/>
<path d="M5517 3464 c-1 -1 -19 -4 -40 -7 -92 -12 -128 -97 -68 -158 16 -16
40 -30 53 -31 13 0 34 -2 48 -4 97 -9 329 -3 400 11 14 3 39 8 55 10 67 12
205 62 205 75 0 4 -6 12 -12 18 -13 10 -125 49 -167 57 -12 2 -30 6 -39 9 -43
12 -140 19 -280 20 -85 1 -154 0 -155 0z"/>
<path d="M4447 3414 c-1 -1 -27 -5 -57 -8 -90 -9 -140 -22 -207 -53 -55 -25
-71 -55 -35 -66 9 -3 48 -16 85 -30 59 -22 84 -26 183 -25 117 1 153 10 180
46 28 36 9 104 -35 121 -24 10 -108 21 -114 15z"/>
<path d="M6861 2076 c-24 -29 -19 -131 15 -301 22 -110 13 -81 72 -235 20 -52
36 -97 34 -100 -3 -7 -25 -7 -37 -1 -5 3 -28 6 -50 7 -22 1 -67 5 -100 9 -88
10 -116 12 -270 20 -171 9 -129 9 -330 0 -177 -7 -189 -8 -295 -20 -36 -5 -77
-8 -92 -9 -16 -1 -28 -4 -28 -8 0 -4 -7 -5 -15 -2 -8 4 -15 3 -15 0 0 -15 82
-33 320 -70 19 -3 46 -8 60 -10 29 -5 97 -14 155 -21 44 -5 93 -13 140 -20 30
-5 69 -10 155 -20 25 -3 61 -8 80 -11 19 -4 51 -8 70 -9 19 -2 35 -4 35 -5 0
-1 11 -4 25 -6 61 -9 99 -15 155 -25 33 -6 76 -13 95 -15 19 -2 61 -9 93 -15
62 -12 87 -4 71 23 -5 7 -9 18 -10 25 -2 13 -60 175 -75 208 -33 76 -98 255
-104 290 -2 11 -6 31 -10 45 -4 14 -8 34 -10 45 -11 68 -57 230 -67 237 -20
12 -54 9 -67 -6z"/>
<path d="M6856 819 c-52 -12 -69 -27 -54 -43 7 -7 17 -13 23 -14 5 -1 35 -8
65 -17 30 -8 75 -18 100 -21 64 -8 92 -13 96 -16 1 -2 -11 -19 -28 -38 -76
-88 -107 -158 -124 -283 -8 -57 -17 -65 -72 -65 -26 0 -67 -3 -92 -6 -25 -3
-82 -6 -127 -8 -46 -2 -83 -7 -83 -11 0 -5 -5 -5 -10 -2 -6 4 -17 1 -25 -5 -8
-7 -15 -9 -15 -6 0 15 -59 -29 -69 -51 -15 -32 -14 -36 8 -59 16 -18 33 -20
147 -23 71 -1 143 -4 159 -5 17 -2 62 -7 100 -11 164 -18 247 -10 260 24 3 8
8 46 11 85 3 39 7 82 10 96 2 14 7 45 10 68 3 24 9 55 14 68 6 14 9 28 8 32
-1 4 10 45 25 92 48 157 47 172 -21 194 -89 29 -251 42 -316 25z"/>
</g>
</svg>
